<?xml version="1.0" standalone="no"?>
<!DOCTYPE svg PUBLIC "-//W3C//DTD SVG 20010904//EN"
 "http://www.w3.org/TR/2001/REC-SVG-20010904/DTD/svg10.dtd">
<svg version="1.0" xmlns="http://www.w3.org/2000/svg"
 width="500.000000pt" height="500.000000pt" viewBox="0 0 500.000000 500.000000"
 preserveAspectRatio="xMidYMid meet">

<g transform="translate(0.000000,500.000000) scale(0.100000,-0.100000)"
fill="#000000" stroke="none">
<path d="M799 2871 c-19 -20 -29 -40 -29 -60 0 -29 -2 -31 -40 -31 -32 0 -48
-7 -78 -34 l-37 -34 -3 -187 c-2 -130 0 -185 7 -180 7 4 11 68 11 180 l0 175
29 32 29 33 457 0 457 0 29 -33 29 -32 0 -261 0 -261 -29 -29 c-23 -23 -38
-29 -73 -29 -24 0 -50 -5 -58 -11 -11 -7 2 -9 48 -6 55 3 67 7 95 35 l32 32 0
271 0 271 -37 34 c-29 26 -46 34 -77 34 -37 0 -39 1 -45 39 -4 26 -15 47 -32
60 -26 20 -38 21 -341 21 l-315 0 -29 -29z m680 -5 c13 -12 21 -31 21 -53 l0
-33 -355 0 -355 0 0 28 c0 31 14 54 45 71 14 7 114 10 321 8 281 -2 303 -3
323 -21z"/>
<path d="M1084 2681 c-51 -23 -104 -75 -130 -127 -27 -56 -26 -174 3 -230 49
-93 156 -152 259 -141 95 10 97 26 2 20 -75 -5 -92 -3 -132 16 -127 62 -178
216 -111 340 53 97 161 146 270 122 170 -38 247 -232 149 -376 -31 -47 -25
-58 9 -13 97 131 44 320 -108 389 -54 25 -157 25 -211 0z"/>
<path d="M1875 2653 c-36 -9 -55 -34 -55 -74 0 -42 5 -47 69 -69 48 -16 68
-38 58 -64 -8 -21 -65 -22 -73 -1 -8 19 -54 20 -54 1 0 -8 12 -24 28 -36 21
-18 36 -21 72 -17 51 6 80 34 80 77 0 34 -19 51 -79 70 -38 12 -47 20 -49 42
-2 19 2 28 16 32 22 7 52 -2 52 -15 0 -5 13 -9 30 -9 28 0 29 1 18 25 -6 13
-24 29 -41 35 -31 10 -39 11 -72 3z"/>
<path d="M3013 2649 c-35 -10 -80 -58 -89 -95 -16 -64 33 -145 97 -159 111
-25 201 83 152 182 -31 63 -94 91 -160 72z m98 -58 c33 -27 34 -101 2 -133
-53 -52 -143 -10 -143 68 0 71 85 110 141 65z"/>
<path d="M3633 2649 c-35 -10 -80 -58 -89 -95 -16 -64 33 -145 97 -159 111
-25 201 83 152 182 -31 63 -94 91 -160 72z m98 -58 c33 -27 34 -101 2 -133
-53 -52 -143 -10 -143 68 0 71 85 110 141 65z"/>
<path d="M4154 2649 c-40 -12 -74 -49 -84 -94 -24 -108 79 -195 182 -152 100
42 103 193 4 238 -45 20 -57 21 -102 8z m101 -64 c53 -52 16 -149 -58 -149
-67 0 -105 69 -73 132 18 34 28 40 74 41 22 1 41 -7 57 -24z"/>
<path d="M2040 2635 c0 -10 11 -15 35 -15 l35 0 0 -115 0 -115 25 0 25 0 0
115 0 115 35 0 c24 0 35 5 35 15 0 12 -17 15 -95 15 -78 0 -95 -3 -95 -15z"/>
<path d="M2280 2551 c0 -90 2 -103 23 -126 16 -20 35 -28 68 -32 41 -5 50 -2
80 25 34 30 34 31 37 131 l4 101 -26 0 -26 0 0 -90 c0 -77 -3 -93 -20 -110
-24 -24 -38 -25 -68 -4 -20 14 -22 23 -22 110 0 94 0 94 -25 94 -25 0 -25 0
-25 -99z"/>
<path d="M2550 2520 l0 -130 48 0 c97 0 154 33 172 101 14 52 -5 107 -49 136
-27 18 -48 23 -102 23 l-69 0 0 -130z m124 90 c14 -5 32 -23 41 -41 34 -65
-10 -139 -81 -139 l-34 0 0 95 c0 94 0 95 24 95 14 0 36 -4 50 -10z"/>
<path d="M2830 2520 c0 -123 1 -130 20 -130 19 0 20 7 20 130 0 123 -1 130
-20 130 -19 0 -20 -7 -20 -130z"/>
<path d="M3350 2520 l0 -130 25 0 c24 0 25 3 25 60 l0 60 40 0 c29 0 40 4 40
15 0 11 -11 15 -40 15 l-40 0 0 40 0 40 55 0 c42 0 55 3 55 15 0 12 -16 15
-80 15 l-80 0 0 -130z"/>
<path d="M3840 2635 c0 -10 11 -15 35 -15 l35 0 0 -115 0 -115 25 0 25 0 0
115 0 115 35 0 c24 0 35 5 35 15 0 12 -17 15 -95 15 -78 0 -95 -3 -95 -15z"/>
<path d="M1143 2623 c-46 -9 -21 -18 46 -18 55 0 75 -4 97 -21 48 -35 67 -70
72 -128 4 -46 0 -62 -22 -100 -58 -99 -189 -114 -268 -30 -54 58 -63 133 -23
202 24 43 17 60 -9 20 -27 -42 -38 -105 -26 -148 13 -49 63 -108 107 -126 139
-59 292 71 254 214 -27 99 -122 155 -228 135z"/>
<path d="M610 2237 c0 -50 31 -104 70 -124 31 -16 774 -19 750 -3 -9 6 -161
10 -378 10 l-364 0 -29 29 c-23 24 -29 38 -29 75 0 24 -4 48 -10 51 -6 4 -10
-11 -10 -38z"/>
<path d="M1800 2190 c0 -27 5 -50 10 -50 6 0 10 11 10 24 0 15 7 26 18 29 16
4 16 5 0 6 -26 2 -22 29 5 34 16 3 13 5 -10 6 l-33 1 0 -50z"/>
<path d="M1902 2228 c-22 -22 -15 -67 12 -80 31 -14 53 -5 68 27 9 21 8 28 -7
45 -20 22 -55 26 -73 8z m61 -20 c15 -23 1 -48 -28 -48 -14 0 -25 2 -25 4 0 2
-3 11 -6 19 -6 16 23 50 39 44 6 -2 15 -10 20 -19z"/>
<path d="M2023 2233 c13 -3 17 -15 17 -49 0 -24 5 -44 10 -44 6 0 10 20 10 44
0 26 5 46 13 49 6 3 -6 5 -28 5 -22 0 -32 -2 -22 -5z"/>
<path d="M2126 2224 c-9 -8 -16 -23 -16 -33 0 -21 30 -51 52 -51 19 0 48 32
48 53 0 21 -27 47 -50 47 -10 0 -26 -7 -34 -16z m52 -3 c8 -4 12 -19 10 -32
-2 -18 -9 -24 -28 -24 -19 0 -26 6 -28 24 -3 20 11 41 28 41 3 0 11 -4 18 -9z"/>
<path d="M2252 2228 c-7 -7 -12 -24 -12 -40 0 -36 32 -55 66 -39 34 15 31 41
-3 40 -17 -1 -21 -3 -10 -6 28 -7 20 -25 -10 -21 -33 4 -43 37 -18 58 13 11
21 11 36 2 26 -16 34 -15 19 3 -15 18 -51 20 -68 3z"/>
<path d="M2360 2191 c0 -28 5 -51 10 -51 6 0 10 10 10 23 l1 22 20 -24 c11
-13 22 -21 26 -18 3 4 0 14 -7 23 -11 12 -11 17 -1 23 25 16 8 46 -27 49 l-32
3 0 -50z m56 28 c3 -6 0 -15 -7 -20 -22 -14 -29 -11 -29 11 0 21 24 27 36 9z"/>
<path d="M2490 2215 c-11 -30 -23 -86 -14 -67 7 15 46 16 62 0 17 -17 16 2 -4
52 -19 46 -31 50 -44 15z m30 -25 c0 -11 -6 -20 -14 -20 -9 0 -12 7 -9 20 3
11 9 20 14 20 5 0 9 -9 9 -20z"/>
<path d="M2580 2190 c0 -27 5 -50 10 -50 6 0 10 11 10 24 0 15 7 26 18 29 16
4 16 5 0 6 -26 2 -22 29 5 34 16 3 13 5 -10 6 l-33 1 0 -50z"/>
<path d="M2670 2190 c0 -27 5 -50 10 -50 6 0 10 23 10 50 0 28 -4 50 -10 50
-5 0 -10 -22 -10 -50z"/>
<path d="M2797 2234 c-3 -3 -3 -12 -1 -19 3 -7 1 -16 -5 -20 -16 -9 -13 -45 4
-51 8 -4 21 -1 28 5 10 8 17 7 25 -1 21 -21 13 3 -13 36 -31 40 -31 49 -4 41
15 -5 19 -4 15 4 -8 12 -39 15 -49 5z m23 -58 c0 -8 -4 -17 -9 -21 -12 -7 -24
12 -16 25 9 15 25 12 25 -4z"/>
<path d="M2957 2233 c-16 -15 -6 -41 18 -47 26 -7 32 -20 15 -31 -6 -4 -18 -1
-27 7 -14 11 -15 11 -11 -2 2 -8 16 -15 29 -15 35 0 38 38 4 53 -30 14 -24 36
7 26 14 -4 18 -2 14 5 -8 12 -39 15 -49 4z"/>
<path d="M3050 2190 c0 -27 5 -50 10 -50 6 0 10 23 10 50 0 28 -4 50 -10 50
-5 0 -10 -22 -10 -50z"/>
<path d="M3111 2188 c2 -52 2 -52 8 -13 l6 40 23 -37 c13 -21 28 -38 33 -38 5
0 9 23 9 50 0 55 -17 69 -22 18 l-3 -33 -20 33 c-10 17 -23 32 -27 32 -4 0 -7
-24 -7 -52z"/>
<path d="M3230 2190 c0 -48 1 -50 28 -49 23 2 24 2 5 6 -14 3 -23 12 -23 23 0
11 9 20 23 23 l22 4 -22 2 c-13 0 -23 7 -23 15 0 8 10 17 23 19 19 4 18 4 -5
6 -27 1 -28 -1 -28 -49z"/>
<path d="M3321 2188 c2 -49 2 -50 9 -18 l7 35 12 -32 c7 -18 16 -33 20 -33 4
0 13 15 20 33 l14 32 7 -35 c7 -32 7 -31 9 18 1 60 -12 68 -30 17 -7 -19 -16
-35 -20 -35 -4 0 -13 16 -19 35 -17 51 -30 43 -29 -17z"/>
<path d="M3480 2215 c-11 -30 -23 -86 -14 -67 7 15 46 16 62 0 17 -17 16 2 -4
52 -19 46 -31 50 -44 15z m30 -25 c0 -11 -6 -20 -14 -20 -9 0 -12 7 -9 20 3
11 9 20 14 20 5 0 9 -9 9 -20z"/>
<path d="M3583 2228 c9 -7 18 -31 20 -53 l4 -40 1 47 c2 35 6 48 20 51 9 3 -1
5 -22 6 -34 1 -37 -1 -23 -11z"/>
<path d="M3682 2228 c-20 -20 -14 -66 9 -79 33 -17 69 3 69 39 0 33 -16 52
-45 52 -12 0 -26 -5 -33 -12z m58 -13 c20 -25 8 -50 -25 -50 -21 0 -31 5 -33
18 -4 21 14 47 33 47 7 0 18 -7 25 -15z"/>
<path d="M3806 2224 c-21 -21 -20 -47 2 -67 24 -22 45 -21 65 1 23 26 21 32
-10 31 -25 0 -26 -1 -8 -9 18 -7 19 -8 3 -15 -27 -11 -48 2 -48 29 0 28 26 42
47 25 7 -7 17 -9 20 -5 9 9 -16 26 -39 26 -9 0 -24 -7 -32 -16z"/>
<path d="M3920 2190 c0 -48 19 -74 21 -27 l0 22 16 -22 c19 -29 38 -30 23 -2
-9 15 -8 24 0 35 19 22 4 44 -30 44 -29 0 -30 -1 -30 -50z m48 23 c-5 -25 -28
-28 -28 -4 0 12 6 21 16 21 9 0 14 -7 12 -17z"/>
<path d="M4037 2193 c-9 -25 -14 -49 -11 -52 4 -3 9 0 11 7 5 14 53 17 53 2 0
-5 4 -10 9 -10 5 0 2 23 -7 50 -9 28 -21 50 -27 50 -6 0 -18 -21 -28 -47z m43
-15 c0 -5 -7 -8 -15 -8 -15 0 -20 21 -8 33 7 7 23 -11 23 -25z"/>
<path d="M4140 2190 c0 -27 5 -50 10 -50 6 0 10 11 10 24 0 15 7 26 18 29 16
4 16 5 0 6 -26 2 -22 29 5 34 16 3 13 5 -10 6 l-33 1 0 -50z"/>
<path d="M4230 2190 c0 -27 5 -50 10 -50 6 0 10 23 10 50 0 28 -4 50 -10 50
-5 0 -10 -22 -10 -50z"/>
</g>
</svg>
