<?xml version="1.0" standalone="no"?>
<!DOCTYPE svg PUBLIC "-//W3C//DTD SVG 20010904//EN"
 "http://www.w3.org/TR/2001/REC-SVG-20010904/DTD/svg10.dtd">
<svg version="1.0" xmlns="http://www.w3.org/2000/svg"
 width="500.000000pt" height="500.000000pt" viewBox="0 0 500.000000 500.000000"
 preserveAspectRatio="xMidYMid meet">

<g transform="translate(0.000000,500.000000) scale(0.100000,-0.100000)"
fill="#000000" stroke="none">
<path d="M796 2869 c-14 -17 -26 -41 -26 -54 0 -23 -17 -35 -51 -35 -33 0 -78
-29 -94 -60 -12 -23 -15 -67 -15 -205 0 -110 4 -175 10 -175 6 0 10 66 10 179
0 172 1 181 23 206 12 15 40 30 62 35 22 5 216 9 430 9 215 0 408 -4 430 -9
22 -5 50 -20 63 -35 22 -26 22 -31 22 -286 l0 -261 -29 -29 c-25 -24 -38 -29
-80 -29 -27 0 -53 -4 -56 -10 -10 -17 94 -12 125 6 57 35 60 48 60 324 0 205
-3 256 -15 280 -16 31 -61 60 -94 60 -35 0 -51 12 -51 37 0 14 -13 37 -29 54
l-29 29 -320 0 -320 0 -26 -31z m646 11 c21 -6 42 -19 48 -30 15 -28 12 -57
-6 -64 -9 -3 -161 -6 -339 -6 -178 0 -330 3 -339 6 -19 7 -21 43 -3 67 6 10
26 21 42 26 43 13 552 13 597 1z"/>
<path d="M1141 2699 c-155 -30 -246 -185 -199 -341 28 -93 144 -178 244 -178
56 0 117 17 109 31 -3 4 -17 4 -31 -1 -66 -26 -163 -6 -232 47 -74 56 -105
197 -63 288 68 150 277 186 395 69 83 -84 94 -218 25 -313 -17 -24 -24 -41
-17 -41 15 0 52 52 67 93 6 16 11 56 11 90 0 168 -145 288 -309 256z"/>
<path d="M1860 2647 c-14 -7 -31 -25 -38 -40 -21 -43 2 -78 62 -98 57 -18 76
-39 57 -63 -17 -20 -45 -21 -61 -1 -7 8 -25 15 -40 15 -23 0 -27 -3 -23 -20 3
-12 18 -27 34 -35 68 -36 149 -3 149 60 0 39 -16 54 -79 76 -37 13 -47 21 -49
41 -4 37 31 48 62 19 22 -21 66 -29 66 -12 0 23 -15 43 -41 56 -34 18 -66 19
-99 2z"/>
<path d="M2991 2642 c-121 -65 -74 -252 64 -252 103 0 166 107 117 199 -21 40
-73 71 -117 71 -17 0 -46 -8 -64 -18z m116 -52 c30 -27 38 -72 19 -108 -17
-34 -34 -42 -80 -42 -38 0 -63 23 -72 67 -6 32 15 87 38 96 30 12 75 6 95 -13z"/>
<path d="M3611 2642 c-121 -65 -74 -252 64 -252 103 0 166 107 117 199 -21 40
-73 71 -117 71 -17 0 -46 -8 -64 -18z m116 -52 c30 -27 38 -72 19 -108 -17
-34 -34 -42 -80 -42 -38 0 -63 23 -72 67 -6 32 15 87 38 96 30 12 75 6 95 -13z"/>
<path d="M4141 2642 c-69 -35 -97 -110 -66 -176 45 -94 181 -102 235 -13 41
67 13 164 -55 193 -45 18 -73 18 -114 -4z m109 -50 c32 -26 38 -90 10 -124
-41 -52 -138 -28 -141 35 -2 43 3 62 24 85 25 27 76 29 107 4z"/>
<path d="M2040 2635 c0 -10 11 -15 35 -15 l35 0 0 -115 0 -115 25 0 c24 0 24
0 27 113 l3 112 38 3 c24 2 37 8 37 18 0 11 -20 14 -100 14 -82 0 -100 -3
-100 -15z"/>
<path d="M2280 2549 c0 -98 1 -101 29 -130 33 -33 83 -39 130 -15 40 21 51 56
51 156 0 89 0 90 -25 90 -25 0 -25 -1 -25 -86 0 -103 -9 -124 -53 -124 -50 0
-57 13 -57 117 0 93 0 93 -25 93 l-25 0 0 -101z"/>
<path d="M2550 2520 l0 -130 58 0 c78 1 133 27 156 75 30 63 5 142 -55 172
-13 7 -54 13 -91 13 l-68 0 0 -130z m142 79 c21 -11 38 -67 31 -103 -7 -36
-48 -66 -89 -66 l-34 0 0 96 0 96 37 -7 c21 -4 45 -11 55 -16z"/>
<path d="M2820 2520 l0 -130 30 0 30 0 0 130 0 130 -30 0 -30 0 0 -130z"/>
<path d="M3350 2520 l0 -130 25 0 c24 0 25 3 25 55 l0 55 40 0 c33 0 40 3 40
20 0 17 -7 20 -40 20 l-40 0 0 40 0 40 55 0 c42 0 55 3 55 15 0 12 -16 15 -80
15 l-80 0 0 -130z"/>
<path d="M3840 2635 c0 -10 11 -15 35 -15 l35 0 0 -115 0 -115 25 0 c24 0 24
0 27 113 l3 112 33 3 c20 2 32 9 32 18 0 11 -19 14 -95 14 -78 0 -95 -3 -95
-15z"/>
<path d="M1133 2620 c-38 -16 -26 -20 35 -14 48 5 66 3 100 -15 96 -49 121
-176 51 -255 -99 -114 -278 -59 -295 90 -5 40 -1 58 20 97 30 56 32 64 9 46
-22 -18 -53 -88 -53 -119 -1 -123 120 -220 236 -189 82 23 143 99 144 179 0
48 -37 117 -81 152 -40 32 -125 46 -166 28z"/>
<path d="M610 2234 c0 -53 21 -94 60 -118 25 -14 74 -16 400 -16 245 0 369 3
365 10 -4 6 -140 10 -376 10 l-371 0 -29 29 c-24 25 -29 37 -29 80 0 28 -4 51
-10 51 -5 0 -10 -21 -10 -46z"/>
<path d="M2801 2236 c-6 -8 -11 -18 -10 -22 1 -5 -1 -17 -5 -26 -14 -31 0 -45
43 -45 l41 0 -30 37 c-36 45 -37 54 -8 44 20 -6 21 -5 9 10 -16 20 -25 20 -40
2z m19 -67 c0 -5 -7 -9 -15 -9 -15 0 -20 12 -9 23 8 8 24 -1 24 -14z"/>
<path d="M1800 2190 c0 -27 5 -50 10 -50 6 0 10 9 10 20 0 11 7 20 15 20 8 0
15 5 15 10 0 6 -7 10 -15 10 -24 0 -17 28 8 33 16 3 13 5 -10 6 l-33 1 0 -50z"/>
<path d="M1902 2228 c-7 -7 -12 -24 -12 -38 0 -32 17 -50 45 -50 25 0 55 29
55 53 0 38 -61 62 -88 35z m66 -41 c-4 -33 -52 -31 -56 2 -2 13 2 27 9 32 20
12 51 -9 47 -34z"/>
<path d="M2023 2233 c13 -3 17 -15 17 -49 0 -24 5 -44 10 -44 6 0 10 20 10 44
0 26 5 46 13 49 6 3 -6 5 -28 5 -22 0 -32 -2 -22 -5z"/>
<path d="M2122 2228 c-28 -28 -2 -88 38 -88 40 0 66 60 38 88 -7 7 -24 12 -38
12 -14 0 -31 -5 -38 -12z m63 -38 c0 -18 -6 -26 -23 -28 -24 -4 -38 18 -28 44
3 9 15 14 28 12 17 -2 23 -10 23 -28z"/>
<path d="M2244 2215 c-15 -23 -15 -27 0 -50 26 -40 86 -28 86 17 0 13 -8 18
-25 18 -14 0 -25 -4 -25 -10 0 -5 7 -10 16 -10 8 0 12 -4 9 -10 -9 -15 -42
-12 -49 5 -12 32 17 62 45 44 22 -14 33 -11 19 6 -19 23 -57 18 -76 -10z"/>
<path d="M2360 2190 c0 -27 5 -50 10 -50 6 0 10 10 10 23 l0 22 20 -25 c10
-14 22 -21 26 -17 4 4 3 12 -3 18 -8 8 -9 16 -1 29 17 27 3 50 -32 50 -29 0
-30 -1 -30 -50z m50 25 c0 -8 -7 -15 -15 -15 -8 0 -15 7 -15 15 0 8 7 15 15
15 8 0 15 -7 15 -15z"/>
<path d="M2496 2231 c-15 -24 -34 -91 -26 -91 5 0 12 5 15 10 9 14 42 12 48
-2 2 -7 8 -10 12 -6 9 9 -18 91 -32 95 -6 2 -14 0 -17 -6z m24 -47 c0 -8 -4
-14 -10 -14 -5 0 -10 9 -10 21 0 11 5 17 10 14 6 -3 10 -13 10 -21z"/>
<path d="M2580 2190 c0 -27 5 -50 10 -50 6 0 10 9 10 20 0 11 7 20 15 20 8 0
15 5 15 10 0 6 -7 10 -15 10 -24 0 -17 28 8 33 16 3 13 5 -10 6 l-33 1 0 -50z"/>
<path d="M2670 2190 c0 -27 5 -50 10 -50 6 0 10 23 10 50 0 28 -4 50 -10 50
-5 0 -10 -22 -10 -50z"/>
<path d="M2957 2233 c-12 -12 -7 -43 7 -43 17 0 38 -24 29 -33 -3 -4 -12 -2
-20 5 -15 12 -28 5 -18 -11 8 -15 38 -14 53 1 18 18 15 26 -18 43 -33 17 -31
40 2 29 14 -4 18 -2 14 5 -8 12 -39 15 -49 4z"/>
<path d="M3050 2190 c0 -27 5 -50 10 -50 6 0 10 23 10 50 0 28 -4 50 -10 50
-5 0 -10 -22 -10 -50z"/>
<path d="M3100 2190 c0 -27 5 -50 10 -50 6 0 10 14 10 30 0 17 4 30 8 30 4 0
16 -13 25 -30 26 -43 37 -37 37 20 0 55 -17 69 -22 18 l-3 -33 -20 33 c-29 48
-45 41 -45 -18z"/>
<path d="M3220 2190 c0 -50 0 -50 33 -49 29 0 30 1 10 9 -13 5 -23 14 -23 20
0 6 10 15 23 20 l22 9 -22 0 c-13 1 -23 7 -23 15 0 8 10 17 23 19 16 3 13 5
-10 6 l-33 1 0 -50z"/>
<path d="M3310 2190 c0 -54 20 -71 21 -17 l0 32 16 -32 c20 -39 30 -42 39 -8
8 33 22 32 27 -2 2 -16 5 -4 6 25 0 28 -3 52 -7 52 -5 0 -16 -17 -26 -37 l-18
-38 -15 38 c-22 55 -43 49 -43 -13z"/>
<path d="M3486 2231 c-15 -24 -34 -91 -26 -91 5 0 12 5 15 10 9 14 42 12 48
-2 2 -7 8 -10 12 -6 9 9 -18 91 -32 95 -6 2 -14 0 -17 -6z m24 -47 c0 -8 -4
-14 -10 -14 -5 0 -10 9 -10 21 0 11 5 17 10 14 6 -3 10 -13 10 -21z"/>
<path d="M3578 2233 c7 -3 12 -23 12 -49 0 -24 5 -44 10 -44 6 0 10 20 10 44
0 34 4 46 18 49 9 3 -1 5 -23 5 -22 0 -34 -2 -27 -5z"/>
<path d="M3674 2215 c-15 -23 -15 -27 0 -50 10 -15 26 -25 41 -25 15 0 31 10
41 25 15 23 15 27 0 50 -10 15 -26 25 -41 25 -15 0 -31 -10 -41 -25z m70 -11
c9 -24 -5 -44 -30 -44 -13 0 -24 2 -24 4 0 2 -3 11 -6 19 -7 18 22 48 41 41 7
-3 16 -12 19 -20z"/>
<path d="M3802 2228 c-28 -28 -2 -88 38 -88 22 0 50 26 50 46 0 8 -10 14 -25
14 -28 0 -34 -16 -7 -23 16 -4 16 -4 0 -12 -25 -10 -48 1 -48 24 0 26 32 45
48 29 14 -14 27 -4 17 11 -9 15 -58 14 -73 -1z"/>
<path d="M3920 2191 c0 -49 19 -75 21 -28 l0 22 16 -22 c20 -29 37 -30 22 -2
-8 16 -8 23 1 29 24 15 6 45 -28 48 l-32 3 0 -50z m48 21 c2 -7 -3 -12 -12
-12 -9 0 -16 7 -16 16 0 17 22 14 28 -4z"/>
<path d="M4036 2193 c-9 -25 -13 -49 -10 -52 4 -3 9 0 11 7 3 6 15 12 28 12
13 0 25 -6 28 -12 2 -7 7 -10 11 -7 10 9 -27 99 -40 99 -7 0 -19 -21 -28 -47z
m34 -17 c-14 -14 -22 -2 -14 18 5 14 9 15 15 4 4 -7 4 -17 -1 -22z"/>
<path d="M4140 2190 c0 -27 5 -50 10 -50 6 0 10 9 10 20 0 11 7 20 15 20 8 0
15 5 15 10 0 6 -7 10 -15 10 -24 0 -17 28 8 33 16 3 13 5 -10 6 l-33 1 0 -50z"/>
<path d="M4230 2190 c0 -27 5 -50 10 -50 6 0 10 23 10 50 0 28 -4 50 -10 50
-5 0 -10 -22 -10 -50z"/>
</g>
</svg>
