<?xml version="1.0" standalone="no"?>
<!DOCTYPE svg PUBLIC "-//W3C//DTD SVG 20010904//EN"
 "http://www.w3.org/TR/2001/REC-SVG-20010904/DTD/svg10.dtd">
<svg version="1.0" xmlns="http://www.w3.org/2000/svg"
 width="500.000000pt" height="500.000000pt" viewBox="0 0 500.000000 500.000000"
 preserveAspectRatio="xMidYMid meet">

<g transform="translate(0.000000,500.000000) scale(0.100000,-0.100000)"
fill="#000000" stroke="none">
<path d="M2119 3251 c-62 -20 -99 -65 -99 -125 0 -24 -4 -26 -41 -26 -59 0
-106 -26 -134 -75 -25 -41 -25 -46 -25 -263 0 -141 4 -222 10 -222 6 0 10 81
10 223 0 203 2 225 20 254 39 65 21 63 642 63 547 0 564 -1 596 -20 59 -36 62
-56 62 -395 0 -283 -1 -309 -20 -344 -24 -48 -70 -71 -144 -71 -34 0 -56 -4
-56 -11 0 -8 23 -10 70 -7 83 4 114 23 148 89 22 43 23 48 20 361 -3 303 -4
318 -24 345 -34 46 -82 73 -130 73 -42 0 -42 1 -49 40 -9 52 -47 97 -93 110
-43 12 -723 12 -763 1z m781 -29 c23 -11 39 -29 48 -54 27 -72 54 -68 -453
-68 l-455 0 0 28 c0 42 22 75 60 94 31 16 72 18 400 18 328 0 369 -2 400 -18z"/>
<path d="M2448 2983 c-69 -26 -130 -73 -166 -128 -41 -62 -56 -114 -56 -196 0
-171 150 -320 323 -323 66 0 141 18 141 35 0 4 -12 4 -27 -3 -16 -6 -62 -11
-103 -11 -61 -1 -86 4 -131 25 -117 54 -183 158 -183 288 0 129 67 232 185
285 53 23 71 27 138 23 90 -4 150 -30 209 -89 108 -108 122 -284 31 -408 -37
-52 -37 -63 0 -27 51 49 76 119 76 216 0 69 -5 94 -24 132 -34 71 -95 134
-157 164 -73 36 -186 43 -256 17z"/>
<path d="M2498 2898 c-21 -5 -38 -14 -38 -19 0 -5 12 -6 28 -2 97 27 195 -9
250 -91 28 -42 32 -57 32 -113 0 -129 -90 -223 -215 -223 -169 0 -269 178
-184 328 35 62 33 79 -4 30 -81 -109 -51 -270 65 -341 123 -76 287 -24 343
110 19 46 19 134 -1 181 -43 105 -171 169 -276 140z"/>
<path d="M1822 2396 c4 -70 21 -102 72 -140 27 -20 41 -21 502 -24 320 -2 474
1 474 8 0 7 -153 10 -465 10 -514 0 -506 -1 -545 63 -13 21 -20 50 -20 84 0
28 -5 55 -11 59 -8 5 -10 -12 -7 -60z"/>
<path d="M1214 2016 c-33 -15 -44 -33 -44 -71 0 -24 42 -65 66 -65 7 0 25 -5
39 -12 36 -16 32 -62 -6 -66 -14 -2 -31 4 -39 12 -16 20 -60 21 -60 2 0 -25
50 -56 90 -56 51 0 90 32 90 73 0 45 -9 55 -71 75 -57 20 -74 47 -45 71 16 13
56 6 56 -10 0 -5 14 -9 30 -9 17 0 30 3 30 6 0 19 -24 43 -51 53 -40 14 -47
13 -85 -3z"/>
<path d="M2360 2017 c-48 -17 -80 -68 -80 -127 0 -75 57 -130 133 -130 40 0
96 35 114 70 28 56 4 152 -44 178 -33 18 -87 22 -123 9z m107 -59 c16 -15 23
-33 23 -60 0 -53 -13 -74 -54 -88 -28 -9 -40 -8 -64 4 -34 18 -42 33 -42 84 0
73 84 110 137 60z"/>
<path d="M2980 2017 c-48 -17 -80 -68 -80 -127 0 -75 57 -130 133 -130 40 0
96 35 114 70 28 56 4 152 -44 178 -33 18 -87 22 -123 9z m107 -59 c26 -25 32
-91 9 -120 -21 -29 -65 -41 -98 -27 -36 15 -48 37 -48 85 0 75 83 113 137 62z"/>
<path d="M3494 2011 c-99 -46 -97 -196 3 -238 57 -23 111 -12 150 31 32 34 38
56 33 116 -6 81 -104 129 -186 91z m106 -41 c10 -5 23 -25 30 -44 22 -67 -34
-138 -94 -120 -64 19 -87 94 -45 148 22 28 73 36 109 16z"/>
<path d="M1400 2006 c0 -9 12 -16 33 -18 l32 -3 3 -113 c3 -111 3 -113 25
-110 21 3 22 8 25 116 l3 112 34 0 c24 0 35 5 35 15 0 12 -17 15 -95 15 -76 0
-95 -3 -95 -14z"/>
<path d="M1630 1935 c0 -104 15 -147 59 -165 44 -18 101 -7 129 25 20 23 22
37 22 126 0 99 0 99 -25 99 -25 0 -25 0 -25 -94 0 -87 -2 -96 -22 -110 -30
-21 -44 -20 -68 4 -17 17 -20 33 -20 110 0 89 0 90 -25 90 -25 0 -25 -1 -25
-85z"/>
<path d="M1900 1890 l0 -130 58 1 c78 0 122 17 149 58 42 62 21 155 -42 185
-20 10 -60 16 -99 16 l-66 0 0 -130z m158 65 c31 -37 30 -98 -3 -130 -18 -18
-35 -25 -65 -25 l-40 0 0 88 c0 49 3 92 8 96 14 15 77 -3 100 -29z"/>
<path d="M2180 1890 l0 -130 25 0 25 0 0 130 0 130 -25 0 -25 0 0 -130z"/>
<path d="M2700 1890 l0 -130 25 0 c22 0 24 4 27 58 l3 57 43 3 c28 2 42 8 42
18 0 10 -12 14 -45 14 l-45 0 0 40 0 40 55 0 c42 0 55 3 55 15 0 12 -16 15
-80 15 l-80 0 0 -130z"/>
<path d="M3200 2006 c0 -9 12 -16 33 -18 l32 -3 3 -112 c2 -102 4 -113 21
-113 21 0 31 50 31 161 l0 69 35 0 c24 0 35 5 35 15 0 12 -17 15 -95 15 -76 0
-95 -3 -95 -14z"/>
<path d="M1190 1550 c0 -27 5 -50 10 -50 6 0 10 11 10 24 0 15 7 26 18 29 16
4 16 5 0 6 -26 2 -22 29 5 34 16 3 13 5 -10 6 l-33 1 0 -50z"/>
<path d="M1292 1588 c-20 -20 -14 -66 9 -79 33 -17 69 3 69 39 0 33 -16 52
-45 52 -12 0 -26 -5 -33 -12z m58 -13 c20 -25 8 -50 -25 -50 -21 0 -31 5 -33
18 -4 21 14 47 33 47 7 0 18 -7 25 -15z"/>
<path d="M1413 1593 c13 -3 17 -15 17 -49 0 -24 5 -44 10 -44 6 0 10 20 10 44
0 26 5 46 13 49 6 3 -6 5 -28 5 -22 0 -32 -2 -22 -5z"/>
<path d="M1512 1588 c-22 -22 -15 -67 12 -80 31 -14 53 -5 68 27 9 21 8 28 -7
45 -20 22 -55 26 -73 8z m61 -20 c15 -23 1 -48 -28 -48 -14 0 -25 2 -25 4 0 2
-3 11 -6 19 -6 16 23 50 39 44 6 -2 15 -10 20 -19z"/>
<path d="M1635 1580 c-18 -20 -18 -24 -4 -48 17 -32 50 -39 73 -17 23 24 20
35 -11 34 -25 0 -26 -1 -8 -9 18 -7 19 -8 3 -15 -25 -10 -48 1 -48 23 0 31 24
46 51 32 17 -10 20 -9 17 2 -8 22 -52 21 -73 -2z"/>
<path d="M1750 1551 c0 -28 5 -51 10 -51 6 0 10 10 10 23 l1 22 20 -24 c11
-13 22 -21 26 -18 3 4 0 14 -7 23 -11 12 -11 17 -1 23 25 16 8 46 -27 49 l-32
3 0 -50z m56 28 c3 -6 0 -15 -7 -20 -22 -14 -29 -11 -29 11 0 21 24 27 36 9z"/>
<path d="M1868 1550 c-9 -27 -12 -50 -7 -50 5 0 9 5 9 10 0 15 48 12 53 -2 2
-7 7 -10 11 -7 10 9 -25 99 -38 99 -7 0 -19 -22 -28 -50z m42 -6 c0 -8 -7 -14
-15 -14 -17 0 -18 2 -9 24 7 18 24 12 24 -10z"/>
<path d="M1970 1550 c0 -27 5 -50 10 -50 6 0 10 11 10 24 0 15 7 26 18 29 16
4 16 5 0 6 -26 2 -22 29 5 34 16 3 13 5 -10 6 l-33 1 0 -50z"/>
<path d="M2060 1550 c0 -27 5 -50 10 -50 6 0 10 23 10 50 0 28 -4 50 -10 50
-5 0 -10 -22 -10 -50z"/>
<path d="M2188 1593 c0 -5 -2 -12 -3 -18 -1 -5 -5 -18 -10 -27 -13 -31 1 -46
39 -45 20 1 36 1 36 2 0 1 -11 16 -25 35 -28 38 -32 55 -10 46 8 -3 15 -1 15
4 0 12 -39 14 -42 3z m17 -73 c-5 -8 -11 -8 -17 -2 -6 6 -7 16 -3 22 5 8 11 8
17 2 6 -6 7 -16 3 -22z"/>
<path d="M2347 1593 c-16 -15 -6 -41 18 -47 26 -7 32 -20 15 -31 -6 -4 -18 -1
-27 7 -14 11 -15 11 -11 -2 2 -8 16 -15 29 -15 35 0 38 38 4 53 -30 14 -24 36
7 26 14 -4 18 -2 14 5 -8 12 -39 15 -49 4z"/>
<path d="M2440 1550 c0 -27 5 -50 10 -50 6 0 10 23 10 50 0 28 -4 50 -10 50
-5 0 -10 -22 -10 -50z"/>
<path d="M2490 1550 c0 -27 5 -50 10 -50 6 0 10 17 10 37 l0 38 25 -38 c14
-20 30 -37 35 -37 6 0 10 23 10 50 0 28 -4 50 -10 50 -5 0 -10 -17 -10 -37 l0
-38 -25 38 c-14 20 -30 37 -35 37 -6 0 -10 -22 -10 -50z"/>
<path d="M2610 1550 l0 -50 33 1 c23 1 26 3 10 6 -27 5 -31 39 -5 46 16 4 16
5 0 6 -26 2 -22 29 5 34 16 3 13 5 -10 6 l-33 1 0 -50z"/>
<path d="M2700 1550 c0 -27 5 -50 10 -50 6 0 10 15 10 33 l1 32 18 -34 18 -35
16 30 16 29 1 -27 c0 -16 5 -28 10 -28 6 0 10 23 10 50 0 59 -14 64 -36 13
l-16 -38 -19 38 c-11 20 -24 37 -29 37 -6 0 -10 -22 -10 -50z"/>
<path d="M2858 1550 c-9 -27 -12 -50 -7 -50 5 0 9 5 9 10 0 15 48 12 53 -2 2
-7 7 -10 11 -7 10 9 -25 99 -38 99 -7 0 -19 -22 -28 -50z m42 -6 c0 -8 -7 -14
-15 -14 -17 0 -18 2 -9 24 7 18 24 12 24 -10z"/>
<path d="M2973 1588 c9 -7 18 -31 20 -53 l4 -40 1 47 c2 35 6 48 20 51 9 3 -1
5 -22 6 -34 1 -37 -1 -23 -11z"/>
<path d="M3065 1580 c-15 -17 -16 -24 -7 -45 15 -32 37 -41 68 -27 17 8 24 20
24 40 0 52 -50 71 -85 32z m59 -6 c27 -26 12 -58 -25 -52 -27 3 -37 32 -19 53
16 19 25 19 44 -1z"/>
<path d="M3196 1584 c-21 -21 -20 -47 2 -67 24 -22 45 -21 65 1 23 26 21 32
-10 31 -25 0 -26 -1 -8 -9 18 -7 19 -8 3 -15 -27 -11 -48 2 -48 29 0 28 26 42
47 25 7 -7 17 -9 20 -5 9 9 -16 26 -39 26 -9 0 -24 -7 -32 -16z"/>
<path d="M3311 1548 c1 -29 4 -43 6 -30 5 27 19 28 33 2 6 -11 15 -20 20 -20
6 0 5 8 -2 19 -9 15 -9 23 1 35 18 21 -2 46 -35 46 -22 0 -24 -4 -23 -52z m49
28 c0 -8 -5 -18 -11 -22 -14 -8 -33 11 -25 25 10 16 36 13 36 -3z"/>
<path d="M3426 1558 c-19 -52 -20 -66 -4 -50 15 15 58 16 58 2 0 -5 4 -10 9
-10 11 0 -23 93 -36 97 -6 2 -17 -16 -27 -39z m38 -4 c9 -22 8 -24 -9 -24 -8
0 -15 9 -15 20 0 24 15 27 24 4z"/>
<path d="M3531 1548 c1 -37 3 -46 8 -29 3 13 15 28 26 32 18 7 18 8 -3 8 -30
1 -24 23 9 32 21 6 21 7 -8 8 l-33 1 1 -52z"/>
<path d="M3623 1550 c0 -30 2 -43 4 -27 2 15 2 39 0 55 -2 15 -4 2 -4 -28z"/>
</g>
</svg>
