<?xml version="1.0" standalone="no"?>
<!DOCTYPE svg PUBLIC "-//W3C//DTD SVG 20010904//EN"
 "http://www.w3.org/TR/2001/REC-SVG-20010904/DTD/svg10.dtd">
<svg version="1.0" xmlns="http://www.w3.org/2000/svg"
 width="500.000000pt" height="500.000000pt" viewBox="0 0 500.000000 500.000000"
 preserveAspectRatio="xMidYMid meet">

<g transform="translate(0.000000,500.000000) scale(0.100000,-0.100000)"
fill="#000000" stroke="none">
<path d="M2093 3245 c-38 -16 -64 -54 -72 -103 -6 -36 -7 -37 -58 -42 -61 -6
-101 -32 -125 -81 -16 -29 -18 -64 -18 -256 0 -142 4 -223 10 -223 6 0 10 79
10 218 0 244 6 269 71 304 32 17 66 18 601 16 l567 -3 31 -30 c16 -16 35 -46
41 -68 6 -24 9 -152 7 -337 -3 -284 -4 -300 -24 -327 -29 -40 -80 -63 -141
-63 -29 0 -53 -4 -53 -10 0 -6 28 -10 64 -10 69 0 111 20 150 73 20 27 21 42
24 349 3 306 2 322 -18 362 -27 54 -60 77 -123 85 -49 6 -51 7 -61 47 -14 51
-34 79 -72 99 -41 21 -761 22 -811 0z m831 -44 c21 -22 27 -36 24 -62 l-3 -34
-444 -3 c-258 -1 -449 2 -454 7 -15 15 2 67 30 95 l26 26 396 0 397 0 28 -29z"/>
<path d="M2434 2980 c-75 -30 -137 -89 -176 -168 -29 -59 -33 -76 -33 -147 0
-67 5 -89 28 -136 32 -66 109 -142 172 -170 85 -38 249 -31 263 10 4 11 0 12
-14 6 -11 -5 -54 -10 -96 -13 -97 -5 -160 14 -222 70 -75 65 -99 116 -104 219
-4 77 -1 94 20 141 34 75 79 122 146 155 49 24 69 28 142 28 72 0 92 -4 136
-27 107 -56 168 -157 169 -278 0 -81 -12 -120 -58 -188 -34 -50 -27 -71 9 -27
72 89 94 222 54 327 -27 72 -97 151 -164 185 -71 37 -197 42 -272 13z"/>
<path d="M2493 2899 c-55 -16 -37 -24 55 -24 81 0 92 -3 129 -28 115 -79 125
-257 19 -344 -69 -57 -150 -67 -231 -29 -59 27 -77 46 -104 106 -32 70 -21
170 23 219 25 27 20 48 -5 25 -33 -29 -59 -94 -59 -148 0 -76 20 -126 70 -176
129 -130 344 -73 395 105 42 143 -63 291 -214 301 -25 2 -61 -1 -78 -7z"/>
<path d="M1822 2392 c4 -78 28 -120 82 -146 30 -14 91 -16 500 -16 304 0 466
3 466 10 0 7 -161 10 -462 10 -444 0 -464 1 -496 20 -48 29 -72 75 -72 138 0
31 -4 52 -11 52 -8 0 -10 -22 -7 -68z"/>
<path d="M1220 2023 c-32 -12 -50 -37 -50 -67 0 -44 13 -59 66 -76 51 -18 71
-38 61 -64 -8 -20 -50 -21 -67 -1 -16 19 -60 20 -60 1 0 -8 12 -24 26 -35 59
-47 157 -11 157 58 0 39 -8 47 -68 69 -56 20 -75 43 -56 66 18 22 38 20 58 -4
20 -23 63 -27 63 -6 0 29 -35 57 -75 61 -22 3 -47 2 -55 -2z"/>
<path d="M2354 2016 c-51 -22 -74 -61 -74 -122 0 -48 4 -59 34 -92 33 -35 38
-37 96 -37 58 0 63 2 96 37 30 33 34 44 34 92 0 62 -24 100 -76 122 -41 17
-70 17 -110 0z m111 -61 c52 -51 18 -145 -53 -145 -50 0 -82 32 -82 82 0 49
35 88 80 88 19 0 40 -9 55 -25z"/>
<path d="M2974 2016 c-51 -22 -74 -61 -74 -122 0 -48 4 -59 34 -92 33 -35 38
-37 96 -37 58 0 63 2 96 37 30 33 34 44 34 92 0 62 -24 100 -76 122 -41 17
-70 17 -110 0z m111 -61 c52 -51 18 -145 -53 -145 -50 0 -82 32 -82 82 0 49
35 88 80 88 19 0 40 -9 55 -25z"/>
<path d="M3493 2015 c-42 -18 -73 -69 -73 -120 0 -52 17 -84 59 -112 68 -46
160 -20 193 55 33 73 4 148 -68 178 -42 17 -70 17 -111 -1z m114 -57 c31 -29
32 -99 3 -128 -31 -31 -93 -27 -119 6 -65 83 40 194 116 122z"/>
<path d="M1390 2006 c0 -10 13 -16 38 -18 l37 -3 3 -112 c3 -113 3 -113 27
-113 l25 0 0 115 0 115 35 0 c24 0 35 5 35 15 0 12 -18 15 -100 15 -80 0 -100
-3 -100 -14z"/>
<path d="M1630 1930 c0 -100 11 -135 51 -156 47 -24 97 -18 130 15 28 29 29
32 29 130 l0 101 -25 0 c-25 0 -25 0 -25 -93 0 -104 -7 -117 -57 -117 -44 0
-53 21 -53 124 0 85 0 86 -25 86 -25 0 -25 -1 -25 -90z"/>
<path d="M1900 1890 l0 -130 60 0 c110 0 170 45 170 127 0 94 -46 133 -160
133 l-70 0 0 -130z m158 64 c26 -29 29 -72 7 -113 -16 -33 -33 -41 -81 -41
l-34 0 0 88 c0 49 3 92 7 95 13 14 79 -5 101 -29z"/>
<path d="M2180 1890 l0 -130 25 0 25 0 0 130 0 130 -25 0 -25 0 0 -130z"/>
<path d="M2700 1890 l0 -130 25 0 c24 0 25 3 25 54 l0 55 42 3 c31 2 44 8 46
20 3 13 -6 17 -40 20 -42 3 -43 4 -43 38 l0 35 53 3 c37 2 52 7 52 18 0 11
-17 14 -80 14 l-80 0 0 -130z"/>
<path d="M3190 2006 c0 -10 13 -16 38 -18 l37 -3 3 -112 c3 -113 3 -113 27
-113 l25 0 0 115 0 115 35 0 c24 0 35 5 35 15 0 12 -18 15 -100 15 -80 0 -100
-3 -100 -14z"/>
<path d="M2191 1601 c-7 -5 -11 -15 -9 -22 3 -8 -1 -22 -10 -31 -21 -25 -1
-46 43 -45 19 1 35 3 35 5 0 2 -11 18 -25 36 -29 38 -32 51 -9 42 10 -4 14 -1
12 6 -6 16 -20 20 -37 9z m19 -72 c0 -5 -7 -9 -15 -9 -15 0 -20 12 -9 23 8 8
24 -1 24 -14z"/>
<path d="M1190 1550 c0 -27 5 -50 10 -50 6 0 10 9 10 20 0 11 7 20 15 20 8 0
15 5 15 10 0 6 -7 10 -15 10 -24 0 -17 28 8 33 16 3 13 5 -10 6 l-33 1 0 -50z"/>
<path d="M1284 1575 c-15 -23 -15 -27 0 -50 10 -15 26 -25 41 -25 15 0 31 10
41 25 15 23 15 27 0 50 -10 15 -26 25 -41 25 -15 0 -31 -10 -41 -25z m70 -11
c9 -24 -5 -44 -30 -44 -13 0 -24 2 -24 4 0 2 -3 11 -6 19 -7 18 22 48 41 41 7
-3 16 -12 19 -20z"/>
<path d="M1413 1593 c13 -3 17 -15 17 -49 0 -24 5 -44 10 -44 6 0 10 20 10 44
0 26 5 46 13 49 6 3 -6 5 -28 5 -22 0 -32 -2 -22 -5z"/>
<path d="M1512 1588 c-7 -7 -12 -24 -12 -38 0 -32 17 -50 45 -50 25 0 55 29
55 53 0 38 -61 62 -88 35z m66 -41 c-4 -33 -52 -31 -56 2 -2 13 2 27 9 32 20
12 51 -9 47 -34z"/>
<path d="M1636 1584 c-22 -21 -20 -47 4 -69 27 -24 73 -10 78 23 3 18 -1 22
-22 22 -29 0 -35 -16 -8 -23 16 -4 16 -4 0 -12 -25 -10 -48 1 -48 24 0 23 35
47 45 31 3 -5 13 -10 22 -10 13 0 13 3 3 15 -16 20 -54 19 -74 -1z"/>
<path d="M1750 1550 c0 -27 5 -50 10 -50 6 0 10 10 10 23 l0 22 20 -25 c10
-14 22 -21 26 -17 4 4 3 12 -3 18 -8 8 -9 16 -1 29 17 27 3 50 -32 50 -29 0
-30 -1 -30 -50z m50 25 c0 -8 -7 -15 -15 -15 -8 0 -15 7 -15 15 0 8 7 15 15
15 8 0 15 -7 15 -15z"/>
<path d="M1868 1553 c-9 -26 -14 -50 -11 -53 3 -3 8 1 10 8 3 6 15 12 28 12
13 0 25 -6 28 -12 2 -7 8 -10 12 -6 10 9 -25 98 -39 98 -6 0 -19 -21 -28 -47z
m42 -9 c0 -14 -12 -19 -23 -8 -9 9 4 35 14 28 5 -3 9 -12 9 -20z"/>
<path d="M1970 1550 c0 -27 5 -50 10 -50 6 0 10 9 10 20 0 11 7 20 15 20 8 0
15 5 15 10 0 6 -7 10 -15 10 -24 0 -17 28 8 33 16 3 13 5 -10 6 l-33 1 0 -50z"/>
<path d="M2060 1550 c0 -27 5 -50 10 -50 6 0 10 23 10 50 0 28 -4 50 -10 50
-5 0 -10 -22 -10 -50z"/>
<path d="M2347 1593 c-12 -12 -7 -43 7 -43 17 0 38 -24 29 -33 -3 -4 -12 -2
-20 5 -15 12 -28 5 -18 -11 8 -15 38 -14 53 1 18 18 15 26 -18 43 -33 17 -31
40 2 29 14 -4 18 -2 14 5 -8 12 -39 15 -49 4z"/>
<path d="M2440 1550 c0 -27 5 -50 10 -50 6 0 10 23 10 50 0 28 -4 50 -10 50
-5 0 -10 -22 -10 -50z"/>
<path d="M2490 1550 c0 -27 5 -50 10 -50 6 0 10 15 10 33 l1 32 27 -33 c15
-18 30 -32 35 -32 4 0 7 23 7 50 0 55 -17 69 -22 18 l-4 -33 -19 32 c-29 48
-45 42 -45 -17z"/>
<path d="M2610 1550 c0 -50 0 -50 33 -49 29 0 30 1 10 9 -27 11 -29 25 -5 39
16 10 16 10 0 11 -26 0 -22 28 5 33 16 3 13 5 -10 6 l-33 1 0 -50z"/>
<path d="M2700 1550 c0 -53 16 -69 22 -22 l4 27 12 -27 c6 -16 15 -28 20 -28
4 0 13 12 19 28 l11 27 1 -27 c2 -50 21 -29 21 22 0 60 -15 65 -37 13 l-16
-38 -16 37 c-23 54 -41 49 -41 -12z"/>
<path d="M2858 1553 c-9 -26 -14 -50 -11 -53 3 -3 8 1 10 8 3 6 15 12 28 12
13 0 25 -6 28 -12 2 -7 8 -10 12 -6 10 9 -25 98 -39 98 -6 0 -19 -21 -28 -47z
m42 -9 c0 -14 -12 -19 -23 -8 -9 9 4 35 14 28 5 -3 9 -12 9 -20z"/>
<path d="M2968 1593 c7 -3 12 -23 12 -49 0 -24 5 -44 10 -44 6 0 10 20 10 44
0 34 4 46 18 49 9 3 -1 5 -23 5 -22 0 -34 -2 -27 -5z"/>
<path d="M3066 1584 c-21 -21 -20 -47 2 -67 37 -34 82 -15 82 33 0 14 -5 31
-12 38 -17 17 -54 15 -72 -4z m62 -33 c-2 -20 -8 -26 -28 -26 -30 0 -40 33
-15 51 25 19 47 6 43 -25z"/>
<path d="M3192 1588 c-28 -28 -2 -88 38 -88 22 0 50 26 50 46 0 8 -10 14 -25
14 -28 0 -34 -16 -7 -23 16 -4 16 -4 0 -12 -25 -10 -48 1 -48 24 0 26 32 45
48 29 14 -14 27 -4 17 11 -9 15 -58 14 -73 -1z"/>
<path d="M3310 1550 c0 -27 5 -50 10 -50 6 0 10 10 10 22 l0 22 16 -22 c19
-28 39 -29 24 -1 -9 15 -8 24 0 35 19 22 4 44 -30 44 -29 0 -30 -1 -30 -50z
m48 22 c2 -7 -3 -12 -12 -12 -9 0 -16 7 -16 16 0 17 22 14 28 -4z"/>
<path d="M3430 1575 c-19 -49 -22 -75 -11 -75 6 0 11 5 11 10 0 6 9 10 19 10
11 0 23 -4 26 -10 17 -28 21 -4 7 40 -17 55 -37 64 -52 25z m26 -42 c-11 -11
-19 6 -11 24 8 17 8 17 12 0 3 -10 2 -21 -1 -24z"/>
<path d="M3530 1550 c0 -27 5 -50 10 -50 6 0 10 7 10 16 0 9 8 23 18 30 16 13
16 13 0 14 -26 0 -22 28 5 33 16 3 13 5 -10 6 l-33 1 0 -50z"/>
<path d="M3620 1550 c0 -27 5 -50 10 -50 6 0 10 23 10 50 0 28 -4 50 -10 50
-5 0 -10 -22 -10 -50z"/>
</g>
</svg>
